<svg width="1611" height="404" viewBox="0 0 1611 404" fill="none" xmlns="http://www.w3.org/2000/svg">
<path d="M485.979 303.148V320.355H504.737V325.894H485.979V343.618H506.952V349.156H479.259V297.609H506.952V303.148H485.979ZM566.896 307.948C570.047 307.948 572.853 308.613 575.315 309.942C577.776 311.222 579.721 313.167 581.149 315.776C582.577 318.386 583.29 321.561 583.29 325.303V349.156H576.644V326.263C576.644 322.226 575.635 319.149 573.616 317.032C571.647 314.865 568.964 313.782 565.566 313.782C562.071 313.782 559.289 314.915 557.221 317.179C555.154 319.395 554.12 322.62 554.12 326.854V349.156H547.473V326.263C547.473 322.226 546.464 319.149 544.445 317.032C542.476 314.865 539.793 313.782 536.396 313.782C532.9 313.782 530.119 314.915 528.051 317.179C525.983 319.395 524.949 322.62 524.949 326.854V349.156H518.229V308.687H524.949V314.521C526.278 312.404 528.051 310.779 530.266 309.647C532.531 308.514 535.017 307.948 537.725 307.948C541.122 307.948 544.125 308.711 546.735 310.237C549.344 311.764 551.289 314.004 552.569 316.958C553.701 314.102 555.572 311.887 558.182 310.311C560.791 308.736 563.696 307.948 566.896 307.948ZM602.142 316.145C603.472 313.831 605.441 311.911 608.05 310.385C610.709 308.81 613.786 308.022 617.281 308.022C620.876 308.022 624.125 308.884 627.03 310.607C629.984 312.33 632.298 314.767 633.972 317.918C635.645 321.02 636.482 324.638 636.482 328.774C636.482 332.86 635.645 336.503 633.972 339.703C632.298 342.904 629.984 345.39 627.03 347.162C624.125 348.935 620.876 349.821 617.281 349.821C613.835 349.821 610.783 349.058 608.124 347.532C605.515 345.956 603.521 344.011 602.142 341.697V368.357H595.422V308.687H602.142V316.145ZM629.614 328.774C629.614 325.721 628.999 323.063 627.768 320.798C626.537 318.533 624.863 316.81 622.746 315.628C620.679 314.447 618.389 313.856 615.878 313.856C613.417 313.856 611.127 314.472 609.01 315.702C606.943 316.884 605.269 318.632 603.989 320.946C602.758 323.21 602.142 325.844 602.142 328.848C602.142 331.9 602.758 334.583 603.989 336.897C605.269 339.162 606.943 340.91 609.01 342.141C611.127 343.322 613.417 343.913 615.878 343.913C618.389 343.913 620.679 343.322 622.746 342.141C624.863 340.91 626.537 339.162 627.768 336.897C628.999 334.583 629.614 331.875 629.614 328.774ZM664.086 349.821C660.295 349.821 656.849 348.959 653.747 347.236C650.695 345.513 648.282 343.076 646.51 339.925C644.787 336.725 643.925 333.032 643.925 328.848C643.925 324.712 644.811 321.069 646.584 317.918C648.405 314.718 650.867 312.281 653.969 310.607C657.07 308.884 660.541 308.022 664.381 308.022C668.222 308.022 671.693 308.884 674.794 310.607C677.896 312.281 680.333 314.693 682.105 317.844C683.927 320.995 684.838 324.663 684.838 328.848C684.838 333.032 683.902 336.725 682.032 339.925C680.21 343.076 677.724 345.513 674.573 347.236C671.422 348.959 667.926 349.821 664.086 349.821ZM664.086 343.913C666.498 343.913 668.763 343.347 670.88 342.214C672.997 341.082 674.696 339.383 675.976 337.119C677.305 334.854 677.97 332.097 677.97 328.848C677.97 325.598 677.33 322.841 676.05 320.576C674.77 318.312 673.096 316.638 671.028 315.555C668.96 314.422 666.72 313.856 664.308 313.856C661.846 313.856 659.581 314.422 657.513 315.555C655.495 316.638 653.87 318.312 652.639 320.576C651.409 322.841 650.793 325.598 650.793 328.848C650.793 332.146 651.384 334.928 652.565 337.193C653.796 339.457 655.421 341.156 657.44 342.288C659.458 343.371 661.674 343.913 664.086 343.913ZM748.692 308.687L736.064 349.156H729.122L719.374 317.032L709.625 349.156H702.683L689.981 308.687H696.849L706.154 342.657L716.198 308.687H723.066L732.888 342.731L742.045 308.687H748.692ZM793.394 327.371C793.394 328.651 793.32 330.005 793.172 331.432H760.826C761.072 335.42 762.426 338.547 764.888 340.811C767.399 343.027 770.427 344.134 773.972 344.134C776.876 344.134 779.289 343.47 781.209 342.141C783.178 340.762 784.557 338.94 785.344 336.676H792.582C791.499 340.565 789.332 343.741 786.083 346.202C782.833 348.615 778.796 349.821 773.972 349.821C770.131 349.821 766.685 348.959 763.633 347.236C760.629 345.513 758.266 343.076 756.543 339.925C754.82 336.725 753.958 333.032 753.958 328.848C753.958 324.663 754.795 320.995 756.469 317.844C758.143 314.693 760.482 312.281 763.485 310.607C766.537 308.884 770.033 308.022 773.972 308.022C777.812 308.022 781.209 308.859 784.163 310.533C787.117 312.207 789.381 314.521 790.957 317.475C792.582 320.379 793.394 323.678 793.394 327.371ZM786.452 325.967C786.452 323.407 785.886 321.216 784.754 319.395C783.621 317.524 782.07 316.121 780.101 315.185C778.181 314.201 776.039 313.708 773.676 313.708C770.279 313.708 767.374 314.792 764.962 316.958C762.599 319.124 761.245 322.127 760.9 325.967H786.452ZM810.093 315.259C811.274 312.945 812.948 311.148 815.114 309.868C817.33 308.588 820.013 307.948 823.164 307.948V314.89H821.392C813.859 314.89 810.093 318.976 810.093 327.149V349.156H803.372V308.687H810.093V315.259ZM835.5 302.114C834.22 302.114 833.137 301.671 832.251 300.785C831.365 299.898 830.922 298.815 830.922 297.535C830.922 296.255 831.365 295.172 832.251 294.286C833.137 293.4 834.22 292.957 835.5 292.957C836.731 292.957 837.765 293.4 838.602 294.286C839.488 295.172 839.931 296.255 839.931 297.535C839.931 298.815 839.488 299.898 838.602 300.785C837.765 301.671 836.731 302.114 835.5 302.114ZM838.75 308.687V349.156H832.029V308.687H838.75ZM871.029 307.948C875.952 307.948 879.94 309.45 882.993 312.453C886.045 315.407 887.571 319.69 887.571 325.303V349.156H880.925V326.263C880.925 322.226 879.916 319.149 877.897 317.032C875.879 314.865 873.121 313.782 869.626 313.782C866.081 313.782 863.25 314.89 861.133 317.105C859.065 319.321 858.032 322.546 858.032 326.78V349.156H851.311V308.687H858.032V314.447C859.361 312.379 861.158 310.779 863.423 309.647C865.736 308.514 868.272 307.948 871.029 307.948ZM916.347 308.022C919.842 308.022 922.895 308.785 925.504 310.311C928.163 311.838 930.132 313.758 931.412 316.072V308.687H938.206V350.042C938.206 353.735 937.419 357.009 935.843 359.864C934.268 362.769 932.003 365.034 929.049 366.659C926.144 368.283 922.747 369.096 918.858 369.096C913.541 369.096 909.11 367.84 905.565 365.329C902.02 362.818 899.928 359.397 899.288 355.064H905.934C906.672 357.526 908.199 359.495 910.513 360.972C912.827 362.498 915.608 363.262 918.858 363.262C922.55 363.262 925.553 362.105 927.867 359.791C930.231 357.477 931.412 354.227 931.412 350.042V341.55C930.083 343.913 928.114 345.882 925.504 347.458C922.895 349.033 919.842 349.821 916.347 349.821C912.753 349.821 909.479 348.935 906.525 347.162C903.62 345.39 901.331 342.904 899.657 339.703C897.983 336.503 897.146 332.86 897.146 328.774C897.146 324.638 897.983 321.02 899.657 317.918C901.331 314.767 903.62 312.33 906.525 310.607C909.479 308.884 912.753 308.022 916.347 308.022ZM931.412 328.848C931.412 325.795 930.797 323.137 929.566 320.872C928.335 318.607 926.661 316.884 924.544 315.702C922.476 314.472 920.187 313.856 917.676 313.856C915.165 313.856 912.876 314.447 910.808 315.628C908.74 316.81 907.091 318.533 905.86 320.798C904.629 323.063 904.014 325.721 904.014 328.774C904.014 331.875 904.629 334.583 905.86 336.897C907.091 339.162 908.74 340.91 910.808 342.141C912.876 343.322 915.165 343.913 917.676 343.913C920.187 343.913 922.476 343.322 924.544 342.141C926.661 340.91 928.335 339.162 929.566 336.897C930.797 334.583 931.412 331.9 931.412 328.848ZM978.187 303.148V320.355H996.945V325.894H978.187V343.618H999.161V349.156H971.467V297.609H999.161V303.148H978.187ZM1007.93 328.848C1007.93 324.663 1008.76 321.02 1010.44 317.918C1012.11 314.767 1014.42 312.33 1017.38 310.607C1020.38 308.884 1023.8 308.022 1027.64 308.022C1032.62 308.022 1036.7 309.228 1039.9 311.641C1043.15 314.053 1045.29 317.401 1046.33 321.684H1039.09C1038.4 319.223 1037.05 317.278 1035.03 315.85C1033.06 314.422 1030.6 313.708 1027.64 313.708C1023.8 313.708 1020.7 315.038 1018.34 317.696C1015.98 320.306 1014.79 324.023 1014.79 328.848C1014.79 333.722 1015.98 337.488 1018.34 340.147C1020.7 342.805 1023.8 344.134 1027.64 344.134C1030.6 344.134 1033.06 343.445 1035.03 342.067C1037 340.688 1038.35 338.719 1039.09 336.159H1046.33C1045.24 340.294 1043.08 343.618 1039.83 346.128C1036.58 348.59 1032.52 349.821 1027.64 349.821C1023.8 349.821 1020.38 348.959 1017.38 347.236C1014.42 345.513 1012.11 343.076 1010.44 339.925C1008.76 336.774 1007.93 333.082 1007.93 328.848ZM1074.05 349.821C1070.26 349.821 1066.82 348.959 1063.71 347.236C1060.66 345.513 1058.25 343.076 1056.48 339.925C1054.75 336.725 1053.89 333.032 1053.89 328.848C1053.89 324.712 1054.78 321.069 1056.55 317.918C1058.37 314.718 1060.83 312.281 1063.94 310.607C1067.04 308.884 1070.51 308.022 1074.35 308.022C1078.19 308.022 1081.66 308.884 1084.76 310.607C1087.86 312.281 1090.3 314.693 1092.07 317.844C1093.89 320.995 1094.8 324.663 1094.8 328.848C1094.8 333.032 1093.87 336.725 1092 339.925C1090.18 343.076 1087.69 345.513 1084.54 347.236C1081.39 348.959 1077.89 349.821 1074.05 349.821ZM1074.05 343.913C1076.47 343.913 1078.73 343.347 1080.85 342.214C1082.96 341.082 1084.66 339.383 1085.94 337.119C1087.27 334.854 1087.94 332.097 1087.94 328.848C1087.94 325.598 1087.3 322.841 1086.02 320.576C1084.74 318.312 1083.06 316.638 1080.99 315.555C1078.93 314.422 1076.69 313.856 1074.27 313.856C1071.81 313.856 1069.55 314.422 1067.48 315.555C1065.46 316.638 1063.84 318.312 1062.61 320.576C1061.38 322.841 1060.76 325.598 1060.76 328.848C1060.76 332.146 1061.35 334.928 1062.53 337.193C1063.76 339.457 1065.39 341.156 1067.41 342.288C1069.42 343.371 1071.64 343.913 1074.05 343.913ZM1153.42 307.948C1156.57 307.948 1159.37 308.613 1161.83 309.942C1164.3 311.222 1166.24 313.167 1167.67 315.776C1169.1 318.386 1169.81 321.561 1169.81 325.303V349.156H1163.16V326.263C1163.16 322.226 1162.15 319.149 1160.14 317.032C1158.17 314.865 1155.48 313.782 1152.09 313.782C1148.59 313.782 1145.81 314.915 1143.74 317.179C1141.67 319.395 1140.64 322.62 1140.64 326.854V349.156H1133.99V326.263C1133.99 322.226 1132.98 319.149 1130.97 317.032C1129 314.865 1126.31 313.782 1122.92 313.782C1119.42 313.782 1116.64 314.915 1114.57 317.179C1112.5 319.395 1111.47 322.62 1111.47 326.854V349.156H1104.75V308.687H1111.47V314.521C1112.8 312.404 1114.57 310.779 1116.79 309.647C1119.05 308.514 1121.54 307.948 1124.24 307.948C1127.64 307.948 1130.65 308.711 1133.25 310.237C1135.86 311.764 1137.81 314.004 1139.09 316.958C1140.22 314.102 1142.09 311.887 1144.7 310.311C1147.31 308.736 1150.22 307.948 1153.42 307.948ZM1230.61 307.948C1233.76 307.948 1236.57 308.613 1239.03 309.942C1241.49 311.222 1243.43 313.167 1244.86 315.776C1246.29 318.386 1247 321.561 1247 325.303V349.156H1240.36V326.263C1240.36 322.226 1239.35 319.149 1237.33 317.032C1235.36 314.865 1232.68 313.782 1229.28 313.782C1225.78 313.782 1223 314.915 1220.93 317.179C1218.87 319.395 1217.83 322.62 1217.83 326.854V349.156H1211.19V326.263C1211.19 322.226 1210.18 319.149 1208.16 317.032C1206.19 314.865 1203.51 313.782 1200.11 313.782C1196.61 313.782 1193.83 314.915 1191.76 317.179C1189.7 319.395 1188.66 322.62 1188.66 326.854V349.156H1181.94V308.687H1188.66V314.521C1189.99 312.404 1191.76 310.779 1193.98 309.647C1196.24 308.514 1198.73 307.948 1201.44 307.948C1204.83 307.948 1207.84 308.711 1210.45 310.237C1213.06 311.764 1215 314.004 1216.28 316.958C1217.41 314.102 1219.28 311.887 1221.89 310.311C1224.5 308.736 1227.41 307.948 1230.61 307.948ZM1296.06 327.371C1296.06 328.651 1295.99 330.005 1295.84 331.432H1263.49C1263.74 335.42 1265.09 338.547 1267.55 340.811C1270.06 343.027 1273.09 344.134 1276.64 344.134C1279.54 344.134 1281.95 343.47 1283.87 342.141C1285.84 340.762 1287.22 338.94 1288.01 336.676H1295.25C1294.16 340.565 1292 343.741 1288.75 346.202C1285.5 348.615 1281.46 349.821 1276.64 349.821C1272.8 349.821 1269.35 348.959 1266.3 347.236C1263.29 345.513 1260.93 343.076 1259.21 339.925C1257.49 336.725 1256.62 333.032 1256.62 328.848C1256.62 324.663 1257.46 320.995 1259.13 317.844C1260.81 314.693 1263.15 312.281 1266.15 310.607C1269.2 308.884 1272.7 308.022 1276.64 308.022C1280.48 308.022 1283.87 308.859 1286.83 310.533C1289.78 312.207 1292.05 314.521 1293.62 317.475C1295.25 320.379 1296.06 323.678 1296.06 327.371ZM1289.12 325.967C1289.12 323.407 1288.55 321.216 1287.42 319.395C1286.29 317.524 1284.74 316.121 1282.77 315.185C1280.85 314.201 1278.7 313.708 1276.34 313.708C1272.94 313.708 1270.04 314.792 1267.63 316.958C1265.26 319.124 1263.91 322.127 1263.57 325.967H1289.12ZM1312.76 315.259C1313.94 312.945 1315.61 311.148 1317.78 309.868C1320 308.588 1322.68 307.948 1325.83 307.948V314.89H1324.06C1316.52 314.89 1312.76 318.976 1312.76 327.149V349.156H1306.04V308.687H1312.76V315.259ZM1332.18 328.848C1332.18 324.663 1333.02 321.02 1334.69 317.918C1336.37 314.767 1338.68 312.33 1341.64 310.607C1344.64 308.884 1348.06 308.022 1351.9 308.022C1356.87 308.022 1360.96 309.228 1364.16 311.641C1367.41 314.053 1369.55 317.401 1370.59 321.684H1363.35C1362.66 319.223 1361.31 317.278 1359.29 315.85C1357.32 314.422 1354.86 313.708 1351.9 313.708C1348.06 313.708 1344.96 315.038 1342.6 317.696C1340.23 320.306 1339.05 324.023 1339.05 328.848C1339.05 333.722 1340.23 337.488 1342.6 340.147C1344.96 342.805 1348.06 344.134 1351.9 344.134C1354.86 344.134 1357.32 343.445 1359.29 342.067C1361.26 340.688 1362.61 338.719 1363.35 336.159H1370.59C1369.5 340.294 1367.34 343.618 1364.09 346.128C1360.84 348.59 1356.78 349.821 1351.9 349.821C1348.06 349.821 1344.64 348.959 1341.64 347.236C1338.68 345.513 1336.37 343.076 1334.69 339.925C1333.02 336.774 1332.18 333.082 1332.18 328.848ZM1417.59 327.371C1417.59 328.651 1417.51 330.005 1417.36 331.432H1385.02C1385.26 335.42 1386.62 338.547 1389.08 340.811C1391.59 343.027 1394.62 344.134 1398.16 344.134C1401.07 344.134 1403.48 343.47 1405.4 342.141C1407.37 340.762 1408.75 338.94 1409.54 336.676H1416.77C1415.69 340.565 1413.52 343.741 1410.27 346.202C1407.03 348.615 1402.99 349.821 1398.16 349.821C1394.32 349.821 1390.88 348.959 1387.82 347.236C1384.82 345.513 1382.46 343.076 1380.73 339.925C1379.01 336.725 1378.15 333.032 1378.15 328.848C1378.15 324.663 1378.99 320.995 1380.66 317.844C1382.33 314.693 1384.67 312.281 1387.68 310.607C1390.73 308.884 1394.22 308.022 1398.16 308.022C1402 308.022 1405.4 308.859 1408.35 310.533C1411.31 312.207 1413.57 314.521 1415.15 317.475C1416.77 320.379 1417.59 323.678 1417.59 327.371ZM1410.64 325.967C1410.64 323.407 1410.08 321.216 1408.95 319.395C1407.81 317.524 1406.26 316.121 1404.29 315.185C1402.37 314.201 1400.23 313.708 1397.87 313.708C1394.47 313.708 1391.57 314.792 1389.15 316.958C1386.79 319.124 1385.44 322.127 1385.09 325.967H1410.64Z" fill="black"/>
<path d="M548.255 82.6121C567.586 82.6121 584.479 86.4435 598.934 94.1065C613.389 101.769 624.536 112.567 632.373 126.5C640.384 140.258 644.39 156.194 644.39 174.306C644.39 192.244 640.384 208.18 632.373 222.112C624.536 236.045 613.302 246.843 598.673 254.506C584.218 262.169 567.412 266 548.255 266H479.549V82.6121H548.255ZM545.381 227.337C562.274 227.337 575.423 222.722 584.828 213.491C594.232 204.261 598.934 191.199 598.934 174.306C598.934 157.413 594.232 144.264 584.828 134.859C575.423 125.455 562.274 120.753 545.381 120.753H524.221V227.337H545.381ZM806.764 190.764C806.764 194.944 806.503 199.298 805.981 203.826H704.882C705.579 212.882 708.452 219.848 713.503 224.725C718.728 229.427 725.084 231.778 732.573 231.778C743.719 231.778 751.469 227.076 755.823 217.671H803.368C800.93 227.25 796.489 235.871 790.045 243.534C783.775 251.197 775.851 257.205 766.273 261.559C756.694 265.913 745.983 268.09 734.141 268.09C719.86 268.09 707.146 265.042 696 258.947C684.854 252.851 676.146 244.143 669.876 232.823C663.607 221.503 660.472 208.267 660.472 193.115C660.472 177.963 663.52 164.727 669.615 153.407C675.885 142.087 684.593 133.379 695.739 127.283C706.885 121.188 719.685 118.14 734.141 118.14C748.247 118.14 760.787 121.101 771.759 127.022C782.73 132.944 791.264 141.39 797.36 152.362C803.629 163.334 806.764 176.135 806.764 190.764ZM761.048 179.008C761.048 171.345 758.436 165.25 753.211 160.722C747.986 156.194 741.455 153.93 733.618 153.93C726.129 153.93 719.773 156.107 714.548 160.461C709.497 164.814 706.362 170.997 705.143 179.008H761.048ZM875.002 140.868C879.182 134.076 885.19 128.59 893.027 124.41C900.864 120.23 909.834 118.14 919.935 118.14C931.952 118.14 942.836 121.188 952.589 127.283C962.342 133.379 970.005 142.087 975.578 153.407C981.325 164.727 984.199 177.876 984.199 192.854C984.199 207.831 981.325 221.067 975.578 232.562C970.005 243.882 962.342 252.677 952.589 258.947C942.836 265.042 931.952 268.09 919.935 268.09C909.659 268.09 900.69 266.087 893.027 262.081C885.364 257.902 879.356 252.416 875.002 245.624V266H830.331V72.6851H875.002V140.868ZM938.744 192.854C938.744 181.708 935.609 173 929.339 166.73C923.244 160.286 915.668 157.064 906.612 157.064C897.73 157.064 890.154 160.286 883.884 166.73C877.789 173.174 874.741 181.969 874.741 193.115C874.741 204.261 877.789 213.056 883.884 219.5C890.154 225.944 897.73 229.166 906.612 229.166C915.494 229.166 923.07 225.944 929.339 219.5C935.609 212.882 938.744 204 938.744 192.854ZM1151.58 120.23V266H1106.9V246.146C1102.38 252.59 1096.19 257.815 1088.36 261.82C1080.69 265.652 1072.16 267.567 1062.76 267.567C1051.61 267.567 1041.77 265.129 1033.24 260.253C1024.7 255.202 1018.08 247.975 1013.38 238.57C1008.68 229.166 1006.33 218.107 1006.33 205.393V120.23H1050.74V199.385C1050.74 209.138 1053.26 216.713 1058.31 222.112C1063.37 227.511 1070.16 230.211 1078.69 230.211C1087.4 230.211 1094.28 227.511 1099.33 222.112C1104.38 216.713 1106.9 209.138 1106.9 199.385V120.23H1151.58ZM1264.91 228.121V266H1242.18C1225.98 266 1213.36 262.081 1204.3 254.244C1195.24 246.233 1190.72 233.258 1190.72 215.32V157.326H1172.95V120.23H1190.72V84.702H1235.39V120.23H1264.65V157.326H1235.39V215.843C1235.39 220.197 1236.43 223.331 1238.52 225.247C1240.61 227.163 1244.1 228.121 1248.97 228.121H1264.91ZM1312.26 105.078C1304.42 105.078 1297.98 102.814 1292.93 98.2863C1288.05 93.584 1285.61 87.8368 1285.61 81.0447C1285.61 74.0784 1288.05 68.3311 1292.93 63.803C1297.98 59.1008 1304.42 56.7497 1312.26 56.7497C1319.92 56.7497 1326.19 59.1008 1331.07 63.803C1336.12 68.3311 1338.64 74.0784 1338.64 81.0447C1338.64 87.8368 1336.12 93.584 1331.07 98.2863C1326.19 102.814 1319.92 105.078 1312.26 105.078ZM1334.46 120.23V266H1289.79V120.23H1334.46ZM1439.98 157.326H1415.95V266H1371.28V157.326H1355.08V120.23H1371.28V116.05C1371.28 98.1121 1376.41 84.5278 1386.69 75.2975C1396.96 65.8929 1412.03 61.1907 1431.88 61.1907C1435.19 61.1907 1437.63 61.2778 1439.2 61.4519V99.3312C1430.66 98.8087 1424.65 100.028 1421.17 102.989C1417.69 105.949 1415.95 111.261 1415.95 118.924V120.23H1439.98V157.326ZM1609.88 120.23L1518.44 335.228H1470.38L1503.81 261.037L1444.51 120.23H1494.41L1528.11 211.402L1561.55 120.23H1609.88Z" fill="black"/>
<path d="M424.19 165.428C419.365 190.759 404.943 213.949 383.588 230.72C382.705 231.413 381.863 232.048 381.049 232.654C385.453 243.96 387.686 255.913 387.686 268.212C387.686 322.272 343.702 366.256 289.636 366.256C268.27 366.256 247.551 359.261 230.588 346.431C231.823 344.96 233.024 343.453 234.19 341.924C242.033 331.605 248.151 320.189 252.364 307.994C262.441 317.442 275.715 322.763 289.63 322.763C319.716 322.763 344.193 298.292 344.193 268.212C344.193 257.003 340.822 246.24 334.451 237.092L319.734 215.969L343.021 204.991C347.829 202.723 352.434 199.872 356.723 196.508C382.844 176.002 390.329 141.771 373.408 120.204C364.947 109.44 351.794 103.507 336.367 103.507C309.732 103.507 289.826 119.869 275.703 138.88C270.261 146.198 265.678 153.909 261.892 161.227C255.584 173.439 250.153 187.158 245.756 201.996C238.974 224.862 235.084 248.998 235.084 268.212C235.084 279.085 233.307 289.779 229.798 299.983C226.41 309.846 221.469 319.081 215.127 327.432C211.035 332.811 206.395 337.769 201.339 342.166C183.505 357.703 160.668 366.256 137.034 366.256C127.967 366.256 119.177 365.021 110.837 362.701C69.4505 351.216 38.9832 313.205 38.9832 268.212C38.9832 255.913 41.2168 243.96 45.6261 232.654C44.7431 232.002 43.9063 231.361 43.0867 230.715C21.7267 213.949 7.30972 190.759 2.48482 165.423C-2.55362 138.984 3.33323 113.388 19.0546 93.3551C35.6935 72.1683 61.6649 60.0137 90.3026 60.0137C115.564 60.0137 138.834 68.4399 159.473 85.05C174.767 97.3547 188.319 113.994 199.821 134.569C195.879 142.539 192.197 151.006 188.861 159.778C184.74 170.6 181.162 181.796 178.167 193.252C174.323 181.756 169.838 171.015 164.777 161.221C151.168 134.892 127.199 103.501 90.3026 103.501C74.8756 103.501 61.7168 109.434 53.2617 120.204C36.3457 141.766 43.8312 175.996 69.9526 196.502C74.235 199.866 78.8464 202.718 83.654 204.986L106.942 215.963L92.2245 237.086C85.8528 246.24 82.4823 256.998 82.4823 268.206C82.4823 288.798 93.9559 306.765 110.843 316.045C118.623 320.322 127.551 322.757 137.04 322.757C153.049 322.757 168.205 315.722 178.623 303.463C186.991 293.611 191.597 281.088 191.597 268.206C191.597 258.891 192.376 243.516 196.075 223.137C199.521 204.132 204.629 185.686 211.248 168.303C214.561 159.611 218.232 151.248 222.162 143.462L222.324 143.139C222.635 142.51 222.953 141.887 223.276 141.258C227.454 133.172 231.927 125.652 236.683 118.703C245.859 105.285 256.075 94.0188 267.219 85.05C287.852 68.4341 311.123 60.0137 336.39 60.0137C365.028 60.0137 390.999 72.1625 407.638 93.3493L408.117 93.9726C423.469 113.913 429.177 139.255 424.19 165.428Z" fill="#5600E3"/>
</svg>
