<svg width="488" height="488" viewBox="0 0 488 488" fill="none" xmlns="http://www.w3.org/2000/svg">
<rect x="0.03125" y="0.03125" width="487.968" height="487.968" rx="105.793" fill="#5600E3"/>
<path d="M420.731 204.67C416.691 225.88 404.614 245.298 386.734 259.341C385.994 259.921 385.289 260.453 384.608 260.96C388.295 270.427 390.165 280.436 390.165 290.734C390.165 336.001 353.336 372.83 308.064 372.83C290.173 372.83 272.824 366.973 258.621 356.23C259.656 354.998 260.661 353.737 261.637 352.456C268.204 343.815 273.327 334.256 276.855 324.045C285.292 331.956 296.408 336.412 308.059 336.412C333.251 336.412 353.746 315.922 353.746 290.734C353.746 281.349 350.924 272.336 345.589 264.676L333.266 246.989L352.765 237.798C356.791 235.898 360.647 233.511 364.238 230.694C386.11 213.523 392.378 184.861 378.209 166.802C371.125 157.789 360.111 152.821 347.193 152.821C324.891 152.821 308.223 166.521 296.398 182.44C291.841 188.568 288.004 195.024 284.833 201.152C279.551 211.378 275.004 222.865 271.321 235.289C265.643 254.436 262.386 274.646 262.386 290.734C262.386 299.839 260.897 308.793 257.959 317.337C255.122 325.596 250.986 333.329 245.675 340.321C242.248 344.825 238.363 348.977 234.13 352.659C219.197 365.668 200.074 372.83 180.285 372.83C172.693 372.83 165.333 371.796 158.349 369.853C123.695 360.237 98.1834 328.409 98.1834 290.734C98.1834 280.436 100.054 270.427 103.746 260.96C103.006 260.414 102.306 259.878 101.619 259.336C83.7339 245.298 71.662 225.88 67.622 204.665C63.4031 182.527 68.3324 161.094 81.4964 144.32C95.4288 126.58 117.176 116.402 141.155 116.402C162.307 116.402 181.792 123.458 199.074 137.366C211.88 147.669 223.227 161.602 232.859 178.83C229.558 185.504 226.475 192.593 223.682 199.939C220.231 209 217.235 218.375 214.727 227.968C211.508 218.341 207.753 209.348 203.515 201.147C192.12 179.101 172.05 152.816 141.155 152.816C128.237 152.816 117.219 157.784 110.139 166.802C95.9749 184.856 102.243 213.518 124.115 230.689C127.701 233.506 131.562 235.893 135.588 237.793L155.087 246.984L142.764 264.672C137.429 272.336 134.607 281.344 134.607 290.729C134.607 307.972 144.214 323.016 158.354 330.787C164.869 334.368 172.345 336.407 180.289 336.407C193.695 336.407 206.386 330.516 215.108 320.252C222.116 312.002 225.972 301.516 225.972 290.729C225.972 282.929 226.625 270.055 229.722 252.991C232.607 237.077 236.884 221.632 242.427 207.077C245.201 199.799 248.275 192.796 251.566 186.277L251.701 186.006C251.962 185.48 252.228 184.958 252.498 184.431C255.997 177.661 259.742 171.364 263.725 165.545C271.408 154.309 279.962 144.876 289.294 137.366C306.571 123.453 326.056 116.402 347.213 116.402C371.192 116.402 392.939 126.575 406.871 144.315L407.272 144.837C420.127 161.534 424.907 182.754 420.731 204.67Z" fill="white"/>
</svg>
