<svg xmlns="http://www.w3.org/2000/svg" xmlns:xlink="http://www.w3.org/1999/xlink" width="64" zoomAndPan="magnify" viewBox="0 0 48 48" height="64" preserveAspectRatio="xMidYMid meet" version="1.0"><defs><clipPath id="id1"><path d="M 0.488281 0 L 47.507812 0 L 47.507812 47.019531 L 0.488281 47.019531 Z M 0.488281 0 " clip-rule="nonzero"/></clipPath><clipPath id="id2"><path d="M 13 20 L 16 20 L 16 34.792969 L 13 34.792969 Z M 13 20 " clip-rule="nonzero"/></clipPath><clipPath id="id3"><path d="M 31 20 L 35 20 L 35 34.792969 L 31 34.792969 Z M 31 20 " clip-rule="nonzero"/></clipPath><clipPath id="id4"><path d="M 0.488281 12.019531 L 5 12.019531 L 5 25 L 0.488281 25 Z M 0.488281 12.019531 " clip-rule="nonzero"/></clipPath><clipPath id="id5"><path d="M 8 26 L 11 26 L 11 34.792969 L 8 34.792969 Z M 8 26 " clip-rule="nonzero"/></clipPath><clipPath id="id6"><path d="M 2 26 L 5 26 L 5 34.792969 L 2 34.792969 Z M 2 26 " clip-rule="nonzero"/></clipPath><clipPath id="id7"><path d="M 43 12.019531 L 47.507812 12.019531 L 47.507812 25 L 43 25 Z M 43 12.019531 " clip-rule="nonzero"/></clipPath><clipPath id="id8"><path d="M 37 26 L 40 26 L 40 34.792969 L 37 34.792969 Z M 37 26 " clip-rule="nonzero"/></clipPath><clipPath id="id9"><path d="M 43 26 L 46 26 L 46 34.792969 L 43 34.792969 Z M 43 26 " clip-rule="nonzero"/></clipPath></defs><g clip-path="url(#id1)"><path fill="rgb(100%, 100%, 100%)" d="M 0.488281 0 L 47.511719 0 L 47.511719 54.367188 L 0.488281 54.367188 Z M 0.488281 0 " fill-opacity="1" fill-rule="nonzero"/><path fill="rgb(100%, 100%, 100%)" d="M 0.488281 0 L 47.511719 0 L 47.511719 47.019531 L 0.488281 47.019531 Z M 0.488281 0 " fill-opacity="1" fill-rule="nonzero"/><path fill="rgb(100%, 100%, 100%)" d="M 0.488281 0 L 47.511719 0 L 47.511719 47.019531 L 0.488281 47.019531 Z M 0.488281 0 " fill-opacity="1" fill-rule="nonzero"/><path fill="rgb(100%, 100%, 100%)" d="M 0.488281 0 L 47.511719 0 L 47.511719 47.019531 L 0.488281 47.019531 Z M 0.488281 0 " fill-opacity="1" fill-rule="nonzero"/></g><g clip-path="url(#id2)"><path fill="rgb(0%, 0%, 0%)" d="M 15.894531 20.578125 L 13.289062 20.578125 L 13.414062 34.785156 L 14.296875 34.785156 Z M 15.894531 20.578125 " fill-opacity="1" fill-rule="nonzero"/></g><path fill="rgb(0%, 0%, 0%)" d="M 11.09375 18.488281 L 36.792969 18.488281 L 36.792969 20.277344 L 11.09375 20.277344 Z M 11.09375 18.488281 " fill-opacity="1" fill-rule="nonzero"/><g clip-path="url(#id3)"><path fill="rgb(0%, 0%, 0%)" d="M 31.980469 20.578125 L 34.585938 20.578125 L 34.457031 34.785156 L 33.578125 34.785156 Z M 31.980469 20.578125 " fill-opacity="1" fill-rule="nonzero"/></g><g clip-path="url(#id4)"><path fill="rgb(0%, 0%, 0%)" d="M 2.960938 12.21875 C 2.382812 12.25 3.097656 12.027344 1.632812 12.59375 C 0.488281 13.035156 1.21875 21.78125 1.296875 23.976562 C 1.816406 23.707031 2.359375 23.617188 2.890625 23.589844 C 3.460938 23.582031 4.113281 23.785156 4.667969 24.078125 C 3.359375 22.015625 3.394531 20.984375 2.960938 12.21875 Z M 2.960938 12.21875 " fill-opacity="1" fill-rule="nonzero"/></g><path fill="rgb(0%, 0%, 0%)" d="M 1.734375 23.550781 C 4.519531 22.699219 8.929688 22.742188 11.148438 23.550781 C 12.144531 23.910156 11.148438 26.007812 11.148438 26.007812 L 1.734375 26.007812 C 1.734375 26.007812 0.710938 23.863281 1.734375 23.550781 Z M 1.734375 23.550781 " fill-opacity="1" fill-rule="nonzero"/><g clip-path="url(#id5)"><path fill="rgb(0%, 0%, 0%)" d="M 8.109375 26.378906 L 10.203125 26.378906 L 10.101562 34.785156 L 9.394531 34.785156 Z M 8.109375 26.378906 " fill-opacity="1" fill-rule="nonzero"/></g><g clip-path="url(#id6)"><path fill="rgb(0%, 0%, 0%)" d="M 4.761719 26.378906 L 2.667969 26.378906 L 2.769531 34.785156 L 3.476562 34.785156 Z M 4.761719 26.378906 " fill-opacity="1" fill-rule="nonzero"/></g><g clip-path="url(#id7)"><path fill="rgb(0%, 0%, 0%)" d="M 45.042969 12.21875 C 45.621094 12.25 44.90625 12.027344 46.371094 12.59375 C 47.515625 13.035156 46.785156 21.78125 46.707031 23.976562 C 46.183594 23.707031 45.644531 23.617188 45.113281 23.589844 C 44.542969 23.582031 43.890625 23.785156 43.332031 24.078125 C 44.644531 22.015625 44.605469 20.984375 45.042969 12.21875 Z M 45.042969 12.21875 " fill-opacity="1" fill-rule="nonzero"/></g><path fill="rgb(0%, 0%, 0%)" d="M 46.269531 23.550781 C 43.484375 22.699219 39.074219 22.742188 36.855469 23.550781 C 35.859375 23.910156 36.855469 26.007812 36.855469 26.007812 L 46.269531 26.007812 C 46.269531 26.007812 47.292969 23.863281 46.269531 23.550781 Z M 46.269531 23.550781 " fill-opacity="1" fill-rule="nonzero"/><g clip-path="url(#id8)"><path fill="rgb(0%, 0%, 0%)" d="M 39.894531 26.378906 L 37.800781 26.378906 L 37.902344 34.785156 L 38.609375 34.785156 Z M 39.894531 26.378906 " fill-opacity="1" fill-rule="nonzero"/></g><g clip-path="url(#id9)"><path fill="rgb(0%, 0%, 0%)" d="M 43.242188 26.378906 L 45.335938 26.378906 L 45.234375 34.785156 L 44.527344 34.785156 Z M 43.242188 26.378906 " fill-opacity="1" fill-rule="nonzero"/></g></svg>