<svg xmlns="http://www.w3.org/2000/svg" xmlns:xlink="http://www.w3.org/1999/xlink" width="800" zoomAndPan="magnify" viewBox="0 0 600 225" height="300" preserveAspectRatio="xMidYMid meet" version="1.0"><defs><g><g id="id1"/></g></defs><rect x="-60" width="720" fill="rgb(100%, 100%, 100%)" y="-22.5" height="270" fill-opacity="1"/><rect x="-60" width="720" fill="rgb(100%, 100%, 100%)" y="-22.5" height="270" fill-opacity="1"/><rect x="-60" width="720" fill="rgb(100%, 100%, 100%)" y="-22.5" height="270" fill-opacity="1"/><rect x="-60" width="720" fill="rgb(100%, 100%, 100%)" y="-22.5" height="270" fill-opacity="1"/><path fill="rgb(0%, 0%, 0%)" d="M 106.535156 96.867188 L 92.3125 96.867188 L 93.011719 174.988281 L 97.8125 174.988281 Z M 106.535156 96.867188 " fill-opacity="1" fill-rule="nonzero"/><path fill="rgb(0%, 0%, 0%)" d="M 80.339844 85.367188 L 220.53125 85.367188 L 220.53125 95.210938 L 80.339844 95.210938 Z M 80.339844 85.367188 " fill-opacity="1" fill-rule="nonzero"/><path fill="rgb(0%, 0%, 0%)" d="M 194.28125 96.867188 L 208.5 96.867188 L 207.800781 174.988281 L 203.003906 174.988281 Z M 194.28125 96.867188 " fill-opacity="1" fill-rule="nonzero"/><path fill="rgb(0%, 0%, 0%)" d="M 35.976562 50.886719 C 32.828125 51.054688 36.726562 49.84375 28.738281 52.957031 C 22.5 55.386719 26.472656 103.484375 26.894531 115.5625 C 29.746094 114.066406 32.691406 113.570312 35.601562 113.425781 C 38.710938 113.375 42.265625 114.496094 45.300781 116.121094 C 38.144531 104.78125 38.355469 99.105469 35.976562 50.886719 Z M 35.976562 50.886719 " fill-opacity="1" fill-rule="nonzero"/><path fill="rgb(0%, 0%, 0%)" d="M 29.296875 113.203125 C 44.472656 108.539062 68.539062 108.769531 80.640625 113.203125 C 86.066406 115.191406 80.640625 126.71875 80.640625 126.71875 L 29.296875 126.71875 C 29.296875 126.71875 23.707031 114.921875 29.296875 113.203125 Z M 29.296875 113.203125 " fill-opacity="1" fill-rule="nonzero"/><path fill="rgb(0%, 0%, 0%)" d="M 64.0625 128.765625 L 75.488281 128.765625 L 74.925781 174.988281 L 71.070312 174.988281 Z M 64.0625 128.765625 " fill-opacity="1" fill-rule="nonzero"/><path fill="rgb(0%, 0%, 0%)" d="M 45.800781 128.765625 L 34.378906 128.765625 L 34.9375 174.988281 L 38.792969 174.988281 Z M 45.800781 128.765625 " fill-opacity="1" fill-rule="nonzero"/><path fill="rgb(0%, 0%, 0%)" d="M 265.542969 50.886719 C 268.691406 51.054688 264.792969 49.84375 272.78125 52.957031 C 279.019531 55.386719 275.046875 103.484375 274.625 115.5625 C 271.773438 114.066406 268.828125 113.570312 265.917969 113.425781 C 262.808594 113.375 259.253906 114.496094 256.21875 116.121094 C 263.375 104.78125 263.164062 99.105469 265.542969 50.886719 Z M 265.542969 50.886719 " fill-opacity="1" fill-rule="nonzero"/><path fill="rgb(0%, 0%, 0%)" d="M 272.222656 113.203125 C 257.046875 108.539062 232.980469 108.769531 220.878906 113.203125 C 215.453125 115.191406 220.878906 126.71875 220.878906 126.71875 L 272.222656 126.71875 C 272.222656 126.71875 277.8125 114.921875 272.222656 113.203125 Z M 272.222656 113.203125 " fill-opacity="1" fill-rule="nonzero"/><path fill="rgb(0%, 0%, 0%)" d="M 237.457031 128.765625 L 226.03125 128.765625 L 226.59375 174.988281 L 230.449219 174.988281 Z M 237.457031 128.765625 " fill-opacity="1" fill-rule="nonzero"/><path fill="rgb(0%, 0%, 0%)" d="M 255.71875 128.765625 L 267.140625 128.765625 L 266.582031 174.988281 L 262.726562 174.988281 Z M 255.71875 128.765625 " fill-opacity="1" fill-rule="nonzero"/><g fill="rgb(0%, 0%, 0%)" fill-opacity="1"><g transform="translate(299.999988, 105.771763)"><g><path d="M 23.28125 -53.734375 C 26.144531 -53.734375 28.941406 -53.316406 31.671875 -52.484375 C 34.398438 -51.648438 36.421875 -50.832031 37.734375 -50.03125 L 39.65625 -48.75 L 34.796875 -39.15625 C 34.410156 -39.40625 33.875 -39.734375 33.1875 -40.140625 C 32.507812 -40.546875 31.234375 -41.085938 29.359375 -41.765625 C 27.484375 -42.453125 25.734375 -42.796875 24.109375 -42.796875 C 22.109375 -42.796875 20.5625 -42.367188 19.46875 -41.515625 C 18.382812 -40.660156 17.84375 -39.507812 17.84375 -38.0625 C 17.84375 -37.332031 18.097656 -36.660156 18.609375 -36.046875 C 19.117188 -35.429688 19.992188 -34.769531 21.234375 -34.0625 C 22.472656 -33.363281 23.5625 -32.800781 24.5 -32.375 C 25.4375 -31.945312 26.882812 -31.304688 28.84375 -30.453125 C 32.257812 -29.003906 35.171875 -27.03125 37.578125 -24.53125 C 39.992188 -22.039062 41.203125 -19.21875 41.203125 -16.0625 C 41.203125 -13.03125 40.65625 -10.382812 39.5625 -8.125 C 38.476562 -5.863281 36.984375 -4.09375 35.078125 -2.8125 C 33.179688 -1.53125 31.082031 -0.582031 28.78125 0.03125 C 26.476562 0.644531 23.984375 0.953125 21.296875 0.953125 C 18.992188 0.953125 16.734375 0.71875 14.515625 0.25 C 12.296875 -0.21875 10.441406 -0.800781 8.953125 -1.5 C 7.460938 -2.207031 6.117188 -2.898438 4.921875 -3.578125 C 3.734375 -4.265625 2.859375 -4.84375 2.296875 -5.3125 L 1.46875 -6.015625 L 7.484375 -16.125 C 7.992188 -15.695312 8.695312 -15.148438 9.59375 -14.484375 C 10.488281 -13.828125 12.078125 -12.941406 14.359375 -11.828125 C 16.640625 -10.722656 18.65625 -10.171875 20.40625 -10.171875 C 25.476562 -10.171875 28.015625 -11.898438 28.015625 -15.359375 C 28.015625 -16.078125 27.832031 -16.742188 27.46875 -17.359375 C 27.113281 -17.984375 26.476562 -18.601562 25.5625 -19.21875 C 24.644531 -19.84375 23.832031 -20.332031 23.125 -20.6875 C 22.414062 -21.050781 21.257812 -21.601562 19.65625 -22.34375 C 18.0625 -23.09375 16.882812 -23.660156 16.125 -24.046875 C 12.925781 -25.628906 10.453125 -27.601562 8.703125 -29.96875 C 6.953125 -32.332031 6.078125 -34.878906 6.078125 -37.609375 C 6.078125 -42.347656 7.820312 -46.21875 11.3125 -49.21875 C 14.8125 -52.226562 18.800781 -53.734375 23.28125 -53.734375 Z M 23.28125 -53.734375 "/></g></g></g><g fill="rgb(0%, 0%, 0%)" fill-opacity="1"><g transform="translate(339.79112, 105.771763)"><g><path d="M 3.84375 0 L 3.84375 -32.8125 L 15.15625 -32.8125 L 15.15625 -29.359375 L 15.28125 -29.359375 C 18.226562 -32.304688 21.363281 -33.78125 24.6875 -33.78125 C 27.082031 -33.78125 29.320312 -33.285156 31.40625 -32.296875 C 33.5 -31.316406 35.078125 -29.804688 36.140625 -27.765625 C 39.460938 -31.773438 43.085938 -33.78125 47.015625 -33.78125 C 50.515625 -33.78125 53.519531 -32.796875 56.03125 -30.828125 C 58.550781 -28.867188 59.8125 -25.800781 59.8125 -21.625 L 59.8125 0 L 48.484375 0 L 48.484375 -18.546875 C 48.484375 -20.296875 48.003906 -21.753906 47.046875 -22.921875 C 46.085938 -24.097656 44.648438 -24.6875 42.734375 -24.6875 C 41.066406 -24.6875 39.796875 -24.1875 38.921875 -23.1875 C 38.046875 -22.1875 37.566406 -20.984375 37.484375 -19.578125 L 37.484375 0 L 26.15625 0 L 26.15625 -18.546875 C 26.15625 -20.296875 25.675781 -21.753906 24.71875 -22.921875 C 23.757812 -24.097656 22.320312 -24.6875 20.40625 -24.6875 C 18.65625 -24.6875 17.34375 -24.140625 16.46875 -23.046875 C 15.59375 -21.960938 15.15625 -20.675781 15.15625 -19.1875 L 15.15625 0 Z M 3.84375 0 "/></g></g></g><g fill="rgb(0%, 0%, 0%)" fill-opacity="1"><g transform="translate(399.605758, 105.771763)"><g><path d="M 6.9375 -3.90625 C 3.289062 -7.144531 1.46875 -11.300781 1.46875 -16.375 C 1.46875 -21.445312 3.363281 -25.613281 7.15625 -28.875 C 10.957031 -32.144531 15.648438 -33.78125 21.234375 -33.78125 C 26.734375 -33.78125 31.367188 -32.132812 35.140625 -28.84375 C 38.921875 -25.5625 40.8125 -21.40625 40.8125 -16.375 C 40.8125 -11.34375 38.96875 -7.195312 35.28125 -3.9375 C 31.59375 -0.675781 26.910156 0.953125 21.234375 0.953125 C 15.347656 0.953125 10.582031 -0.664062 6.9375 -3.90625 Z M 15.703125 -21.9375 C 14.234375 -20.488281 13.5 -18.632812 13.5 -16.375 C 13.5 -14.113281 14.203125 -12.269531 15.609375 -10.84375 C 17.015625 -9.414062 18.867188 -8.703125 21.171875 -8.703125 C 23.390625 -8.703125 25.210938 -9.425781 26.640625 -10.875 C 28.066406 -12.320312 28.78125 -14.15625 28.78125 -16.375 C 28.78125 -18.632812 28.046875 -20.488281 26.578125 -21.9375 C 25.109375 -23.382812 23.304688 -24.109375 21.171875 -24.109375 C 18.992188 -24.109375 17.171875 -23.382812 15.703125 -21.9375 Z M 15.703125 -21.9375 "/></g></g></g><g fill="rgb(0%, 0%, 0%)" fill-opacity="1"><g transform="translate(438.693192, 105.771763)"><g><path d="M 6.9375 -3.90625 C 3.289062 -7.144531 1.46875 -11.300781 1.46875 -16.375 C 1.46875 -21.445312 3.363281 -25.613281 7.15625 -28.875 C 10.957031 -32.144531 15.648438 -33.78125 21.234375 -33.78125 C 26.734375 -33.78125 31.367188 -32.132812 35.140625 -28.84375 C 38.921875 -25.5625 40.8125 -21.40625 40.8125 -16.375 C 40.8125 -11.34375 38.96875 -7.195312 35.28125 -3.9375 C 31.59375 -0.675781 26.910156 0.953125 21.234375 0.953125 C 15.347656 0.953125 10.582031 -0.664062 6.9375 -3.90625 Z M 15.703125 -21.9375 C 14.234375 -20.488281 13.5 -18.632812 13.5 -16.375 C 13.5 -14.113281 14.203125 -12.269531 15.609375 -10.84375 C 17.015625 -9.414062 18.867188 -8.703125 21.171875 -8.703125 C 23.390625 -8.703125 25.210938 -9.425781 26.640625 -10.875 C 28.066406 -12.320312 28.78125 -14.15625 28.78125 -16.375 C 28.78125 -18.632812 28.046875 -20.488281 26.578125 -21.9375 C 25.109375 -23.382812 23.304688 -24.109375 21.171875 -24.109375 C 18.992188 -24.109375 17.171875 -23.382812 15.703125 -21.9375 Z M 15.703125 -21.9375 "/></g></g></g><g fill="rgb(0%, 0%, 0%)" fill-opacity="1"><g transform="translate(477.78062, 105.771763)"><g><path d="M 5.75 -32.8125 L 5.75 -45.03125 L 17.078125 -45.03125 L 17.078125 -32.8125 L 23.984375 -32.8125 L 23.984375 -24.1875 L 17.078125 -24.1875 L 17.078125 -13.75 C 17.078125 -10.726562 17.929688 -9.21875 19.640625 -9.21875 C 20.066406 -9.21875 20.515625 -9.300781 20.984375 -9.46875 C 21.453125 -9.632812 21.8125 -9.804688 22.0625 -9.984375 L 22.453125 -10.234375 L 25.265625 -1.09375 C 22.835938 0.269531 20.066406 0.953125 16.953125 0.953125 C 14.816406 0.953125 12.976562 0.582031 11.4375 -0.15625 C 9.90625 -0.90625 8.742188 -1.90625 7.953125 -3.15625 C 7.171875 -4.414062 6.609375 -5.738281 6.265625 -7.125 C 5.921875 -8.519531 5.75 -10.003906 5.75 -11.578125 L 5.75 -24.1875 L 1.03125 -24.1875 L 1.03125 -32.8125 Z M 5.75 -32.8125 "/></g></g></g><g fill="rgb(0%, 0%, 0%)" fill-opacity="1"><g transform="translate(499.851267, 105.771763)"><g><path d="M 3.84375 0 L 3.84375 -55.015625 L 15.15625 -55.015625 L 15.15625 -29.359375 L 15.28125 -29.359375 C 18.226562 -32.304688 21.363281 -33.78125 24.6875 -33.78125 C 26.3125 -33.78125 27.921875 -33.566406 29.515625 -33.140625 C 31.117188 -32.710938 32.65625 -32.050781 34.125 -31.15625 C 35.59375 -30.257812 36.785156 -28.988281 37.703125 -27.34375 C 38.617188 -25.707031 39.078125 -23.800781 39.078125 -21.625 L 39.078125 0 L 27.765625 0 L 27.765625 -18.546875 C 27.765625 -20.253906 27.21875 -21.75 26.125 -23.03125 C 25.039062 -24.3125 23.625 -24.953125 21.875 -24.953125 C 20.164062 -24.953125 18.617188 -24.289062 17.234375 -22.96875 C 15.847656 -21.644531 15.15625 -20.171875 15.15625 -18.546875 L 15.15625 0 Z M 3.84375 0 "/></g></g></g><g fill="rgb(0%, 0%, 0%)" fill-opacity="1"><g transform="translate(299.999988, 166.545947)"><g><path d="M 3.84375 -52.78125 L 19.125 -52.78125 C 26.457031 -52.78125 32.722656 -50.269531 37.921875 -45.25 C 43.128906 -40.238281 45.734375 -33.960938 45.734375 -26.421875 C 45.734375 -18.828125 43.140625 -12.523438 37.953125 -7.515625 C 32.773438 -2.503906 26.5 0 19.125 0 L 3.84375 0 Z M 15.859375 -10.75 L 17.71875 -10.75 C 22.113281 -10.75 25.707031 -12.226562 28.5 -15.1875 C 31.289062 -18.15625 32.707031 -21.878906 32.75 -26.359375 C 32.75 -30.835938 31.351562 -34.566406 28.5625 -37.546875 C 25.769531 -40.535156 22.15625 -42.03125 17.71875 -42.03125 L 15.859375 -42.03125 Z M 15.859375 -10.75 "/></g></g></g><g fill="rgb(0%, 0%, 0%)" fill-opacity="1"><g transform="translate(344.013329, 166.545947)"><g><path d="M 4.921875 -51.109375 C 6.242188 -52.429688 7.820312 -53.09375 9.65625 -53.09375 C 11.488281 -53.09375 13.066406 -52.429688 14.390625 -51.109375 C 15.710938 -49.785156 16.375 -48.207031 16.375 -46.375 C 16.375 -44.539062 15.710938 -42.960938 14.390625 -41.640625 C 13.066406 -40.316406 11.488281 -39.65625 9.65625 -39.65625 C 7.820312 -39.65625 6.242188 -40.316406 4.921875 -41.640625 C 3.597656 -42.960938 2.9375 -44.539062 2.9375 -46.375 C 2.9375 -48.207031 3.597656 -49.785156 4.921875 -51.109375 Z M 3.84375 -32.8125 L 3.84375 0 L 15.15625 0 L 15.15625 -32.8125 Z M 3.84375 -32.8125 "/></g></g></g><g fill="rgb(0%, 0%, 0%)" fill-opacity="1"><g transform="translate(360.134494, 166.545947)"><g><path d="M 3.84375 0 L 3.84375 -32.8125 L 15.15625 -32.8125 L 15.15625 -29.359375 L 15.28125 -29.359375 C 18.226562 -32.304688 21.363281 -33.78125 24.6875 -33.78125 C 26.3125 -33.78125 27.921875 -33.566406 29.515625 -33.140625 C 31.117188 -32.710938 32.65625 -32.050781 34.125 -31.15625 C 35.59375 -30.257812 36.785156 -28.988281 37.703125 -27.34375 C 38.617188 -25.707031 39.078125 -23.800781 39.078125 -21.625 L 39.078125 0 L 27.765625 0 L 27.765625 -18.546875 C 27.765625 -20.253906 27.21875 -21.75 26.125 -23.03125 C 25.039062 -24.3125 23.625 -24.953125 21.875 -24.953125 C 20.164062 -24.953125 18.617188 -24.289062 17.234375 -22.96875 C 15.847656 -21.644531 15.15625 -20.171875 15.15625 -18.546875 L 15.15625 0 Z M 3.84375 0 "/></g></g></g><g fill="rgb(0%, 0%, 0%)" fill-opacity="1"><g transform="translate(399.221922, 166.545947)"><g><path d="M 4.921875 -51.109375 C 6.242188 -52.429688 7.820312 -53.09375 9.65625 -53.09375 C 11.488281 -53.09375 13.066406 -52.429688 14.390625 -51.109375 C 15.710938 -49.785156 16.375 -48.207031 16.375 -46.375 C 16.375 -44.539062 15.710938 -42.960938 14.390625 -41.640625 C 13.066406 -40.316406 11.488281 -39.65625 9.65625 -39.65625 C 7.820312 -39.65625 6.242188 -40.316406 4.921875 -41.640625 C 3.597656 -42.960938 2.9375 -44.539062 2.9375 -46.375 C 2.9375 -48.207031 3.597656 -49.785156 4.921875 -51.109375 Z M 3.84375 -32.8125 L 3.84375 0 L 15.15625 0 L 15.15625 -32.8125 Z M 3.84375 -32.8125 "/></g></g></g><g fill="rgb(0%, 0%, 0%)" fill-opacity="1"><g transform="translate(415.343088, 166.545947)"><g><path d="M 3.84375 0 L 3.84375 -32.8125 L 15.15625 -32.8125 L 15.15625 -29.359375 L 15.28125 -29.359375 C 18.226562 -32.304688 21.363281 -33.78125 24.6875 -33.78125 C 26.3125 -33.78125 27.921875 -33.566406 29.515625 -33.140625 C 31.117188 -32.710938 32.65625 -32.050781 34.125 -31.15625 C 35.59375 -30.257812 36.785156 -28.988281 37.703125 -27.34375 C 38.617188 -25.707031 39.078125 -23.800781 39.078125 -21.625 L 39.078125 0 L 27.765625 0 L 27.765625 -18.546875 C 27.765625 -20.253906 27.21875 -21.75 26.125 -23.03125 C 25.039062 -24.3125 23.625 -24.953125 21.875 -24.953125 C 20.164062 -24.953125 18.617188 -24.289062 17.234375 -22.96875 C 15.847656 -21.644531 15.15625 -20.171875 15.15625 -18.546875 L 15.15625 0 Z M 3.84375 0 "/></g></g></g><g fill="rgb(0%, 0%, 0%)" fill-opacity="1"><g transform="translate(454.430508, 166.545947)"><g><path d="M 2.359375 8.0625 L 11.640625 3.515625 C 13.347656 6.328125 16.3125 7.734375 20.53125 7.734375 C 22.488281 7.734375 24.3125 7.101562 26 5.84375 C 27.6875 4.59375 28.53125 2.664062 28.53125 0.0625 L 28.53125 -2.359375 C 26.53125 -0.148438 22.945312 0.953125 17.78125 0.953125 C 13.050781 0.953125 9.148438 -0.71875 6.078125 -4.0625 C 3.003906 -7.40625 1.46875 -11.507812 1.46875 -16.375 C 1.46875 -21.238281 3.003906 -25.351562 6.078125 -28.71875 C 9.148438 -32.09375 13.050781 -33.78125 17.78125 -33.78125 C 22 -33.78125 25.519531 -32.476562 28.34375 -29.875 L 28.53125 -29.875 L 28.53125 -32.8125 L 39.859375 -32.8125 L 39.859375 0.890625 C 39.859375 6.222656 38.085938 10.335938 34.546875 13.234375 C 31.003906 16.140625 26.332031 17.59375 20.53125 17.59375 C 11.144531 17.59375 5.085938 14.414062 2.359375 8.0625 Z M 15.703125 -21.9375 C 14.234375 -20.488281 13.5 -18.632812 13.5 -16.375 C 13.5 -14.113281 14.203125 -12.269531 15.609375 -10.84375 C 17.015625 -9.414062 18.867188 -8.703125 21.171875 -8.703125 C 23.390625 -8.703125 25.210938 -9.425781 26.640625 -10.875 C 28.066406 -12.320312 28.78125 -14.15625 28.78125 -16.375 C 28.78125 -18.632812 28.046875 -20.488281 26.578125 -21.9375 C 25.109375 -23.382812 23.304688 -24.109375 21.171875 -24.109375 C 18.992188 -24.109375 17.171875 -23.382812 15.703125 -21.9375 Z M 15.703125 -21.9375 "/></g></g></g></svg>